# xmcd CD database file
#
# Track frame offsets:
#	150
#	15600
#	28525
#	33920
#	66850
#	80777
#	106487
#	122052
#	153142
#	174065
#	208655
#
# Disc length: 3430 seconds
#
# Revision: 0
# Processed by: cddbd v1.5.2PL0 Copyright (c) Steve Scherf et al.
# Submitted via: CDex 1.70beta2
#
DISCID=830d640b
DTITLE=Bruno Tommaso - Olter Napoli, la notte
DYEAR=2000
DGENRE=Jazz
TTITLE0=Arcana premessa
TTITLE1=Vergin, tutto amor
TTITLE2=Danza, danza
TTITLE3=Ciardino d' ammore
TTITLE4=Core' ngrato
TTITLE5=Chiove
TTITLE6=Fenesta ca lucive
TTITLE7='A vucchela
TTITLE8=Palermo-Napoli, solo andata
TTITLE9=Anema e core
TTITLE10=Pagliaccio (Carosello napoletano)
EXTD=YEAR: 2000
EXTT0=
EXTT1=
EXTT2=
EXTT3=
EXTT4=
EXTT5=
EXTT6=
EXTT7=
EXTT8=
EXTT9=
EXTT10=
PLAYORDER=
